<svg width="40" height="40" viewBox="0 0 40 40" fill="none" xmlns="http://www.w3.org/2000/svg">
<circle cx="20" cy="20" r="20" fill="#FD673A"/>
<path d="M28.6063 30.932L25.4813 28.307C25.1313 28.0117 24.5813 28.0227 24.2438 28.3289C23.9063 28.6352 23.9188 29.1164 24.2688 29.4117L24.65 29.7344H15.3438L15.725 29.4117C16.075 29.1164 16.0875 28.6352 15.75 28.3289C15.4125 28.0227 14.8625 28.0117 14.5125 28.307L11.3875 30.932C11.0375 31.2274 11.025 31.7086 11.3625 32.0149C11.5313 32.1734 11.7625 32.25 11.9938 32.25C12.2125 32.25 12.4313 32.1789 12.6 32.0367L13.5188 31.2656H26.4688L27.3875 32.0367C27.5563 32.1789 27.775 32.25 27.9938 32.25C28.225 32.25 28.4563 32.1734 28.625 32.0149C28.9688 31.7086 28.9563 31.2274 28.6063 30.932Z" fill="#444444"/>
<path d="M25.0625 8.625H24C24 8.14375 23.55 7.75 23 7.75H17C16.45 7.75 16 8.14375 16 8.625H15.0625C12.8562 8.625 11 10.1398 11 12.0703V24.9766C11 26.907 20 28.5313 20 28.5313C20 28.5313 29 26.907 29 24.9766V12.0703C29 10.1398 27.2687 8.625 25.0625 8.625ZM20 25.25C18.3437 25.25 17 24.0742 17 22.625C17 21.1758 18.3437 20 20 20C21.6562 20 23 21.1758 23 22.625C23 24.0742 21.6562 25.25 20 25.25ZM26 16.5C26 16.9813 25.55 17.375 25 17.375H15C14.45 17.375 14 16.9813 14 16.5V13C14 12.5188 14.45 12.125 15 12.125H25C25.55 12.125 26 12.5188 26 13V16.5Z" fill="white"/>
<path d="M20 24.293C21.0528 24.293 21.9062 23.5462 21.9062 22.625C21.9062 21.7038 21.0528 20.957 20 20.957C18.9472 20.957 18.0938 21.7038 18.0938 22.625C18.0938 23.5462 18.9472 24.293 20 24.293Z" fill="#E6EAF1"/>
</svg>
