<svg width="470" height="224" viewBox="0 0 470 224" fill="none" xmlns="http://www.w3.org/2000/svg">
<path d="M123.701 164.08V192H118.101V164.08H123.701ZM143.714 169.52C146.354 169.52 148.488 170.36 150.114 172.04C151.741 173.693 152.554 176.013 152.554 179V192H146.954V179.76C146.954 178 146.514 176.653 145.634 175.72C144.754 174.76 143.554 174.28 142.034 174.28C140.488 174.28 139.261 174.76 138.354 175.72C137.474 176.653 137.034 178 137.034 179.76V192H131.434V169.84H137.034V172.6C137.781 171.64 138.728 170.893 139.874 170.36C141.048 169.8 142.328 169.52 143.714 169.52ZM166.6 174.44V185.16C166.6 185.907 166.773 186.453 167.12 186.8C167.493 187.12 168.106 187.28 168.96 187.28H171.56V192H168.04C163.32 192 160.96 189.707 160.96 185.12V174.44H158.32V169.84H160.96V164.36H166.6V169.84H171.56V174.44H166.6ZM198.387 180.44C198.387 181.24 198.334 181.96 198.227 182.6H182.027C182.161 184.2 182.721 185.453 183.707 186.36C184.694 187.267 185.907 187.72 187.347 187.72C189.427 187.72 190.907 186.827 191.787 185.04H197.827C197.187 187.173 195.961 188.933 194.147 190.32C192.334 191.68 190.107 192.36 187.467 192.36C185.334 192.36 183.414 191.893 181.707 190.96C180.027 190 178.707 188.653 177.747 186.92C176.814 185.187 176.347 183.187 176.347 180.92C176.347 178.627 176.814 176.613 177.747 174.88C178.681 173.147 179.987 171.813 181.667 170.88C183.347 169.947 185.281 169.48 187.467 169.48C189.574 169.48 191.454 169.933 193.107 170.84C194.787 171.747 196.081 173.04 196.987 174.72C197.921 176.373 198.387 178.28 198.387 180.44ZM192.587 178.84C192.561 177.4 192.041 176.253 191.027 175.4C190.014 174.52 188.774 174.08 187.307 174.08C185.921 174.08 184.747 174.507 183.787 175.36C182.854 176.187 182.281 177.347 182.067 178.84H192.587ZM210.275 162.4V192H204.675V162.4H210.275ZM223.608 162.4V192H218.008V162.4H223.608ZM234.18 167.2C233.194 167.2 232.367 166.893 231.7 166.28C231.06 165.64 230.74 164.853 230.74 163.92C230.74 162.987 231.06 162.213 231.7 161.6C232.367 160.96 233.194 160.64 234.18 160.64C235.167 160.64 235.98 160.96 236.62 161.6C237.287 162.213 237.62 162.987 237.62 163.92C237.62 164.853 237.287 165.64 236.62 166.28C235.98 166.893 235.167 167.2 234.18 167.2ZM236.94 169.84V192H231.34V169.84H236.94ZM263.673 164.08V168.6H256.233V192H250.633V168.6H243.193V164.08H263.673ZM275.559 173.28C276.279 172.107 277.213 171.187 278.359 170.52C279.533 169.853 280.866 169.52 282.359 169.52V175.4H280.879C279.119 175.4 277.786 175.813 276.879 176.64C275.999 177.467 275.559 178.907 275.559 180.96V192H269.959V169.84H275.559V173.28ZM286.891 180.84C286.891 178.6 287.331 176.613 288.211 174.88C289.118 173.147 290.331 171.813 291.851 170.88C293.398 169.947 295.118 169.48 297.011 169.48C298.664 169.48 300.104 169.813 301.331 170.48C302.584 171.147 303.584 171.987 304.331 173V169.84H309.971V192H304.331V188.76C303.611 189.8 302.611 190.667 301.331 191.36C300.078 192.027 298.624 192.36 296.971 192.36C295.104 192.36 293.398 191.88 291.851 190.92C290.331 189.96 289.118 188.613 288.211 186.88C287.331 185.12 286.891 183.107 286.891 180.84ZM304.331 180.92C304.331 179.56 304.064 178.4 303.531 177.44C302.998 176.453 302.278 175.707 301.371 175.2C300.464 174.667 299.491 174.4 298.451 174.4C297.411 174.4 296.451 174.653 295.571 175.16C294.691 175.667 293.971 176.413 293.411 177.4C292.878 178.36 292.611 179.507 292.611 180.84C292.611 182.173 292.878 183.347 293.411 184.36C293.971 185.347 294.691 186.107 295.571 186.64C296.478 187.173 297.438 187.44 298.451 187.44C299.491 187.44 300.464 187.187 301.371 186.68C302.278 186.147 302.998 185.4 303.531 184.44C304.064 183.453 304.331 182.28 304.331 180.92ZM320.48 167.2C319.494 167.2 318.667 166.893 318 166.28C317.36 165.64 317.04 164.853 317.04 163.92C317.04 162.987 317.36 162.213 318 161.6C318.667 160.96 319.494 160.64 320.48 160.64C321.467 160.64 322.28 160.96 322.92 161.6C323.587 162.213 323.92 162.987 323.92 163.92C323.92 164.853 323.587 165.64 322.92 166.28C322.28 166.893 321.467 167.2 320.48 167.2ZM323.24 169.84V192H317.64V169.84H323.24ZM343.253 169.52C345.893 169.52 348.027 170.36 349.653 172.04C351.28 173.693 352.093 176.013 352.093 179V192H346.493V179.76C346.493 178 346.053 176.653 345.173 175.72C344.293 174.76 343.093 174.28 341.573 174.28C340.027 174.28 338.8 174.76 337.893 175.72C337.013 176.653 336.573 178 336.573 179.76V192H330.973V169.84H336.573V172.6C337.32 171.64 338.267 170.893 339.413 170.36C340.587 169.8 341.867 169.52 343.253 169.52Z" fill="black"/>
<path d="M147.559 205.492V219H145.796V205.492H147.559ZM151.901 205.492V206.958H141.464V205.492H151.901ZM154.656 210.539V219H152.94V208.962H154.61L154.656 210.539ZM157.792 208.906L157.783 210.502C157.64 210.471 157.504 210.452 157.375 210.446C157.251 210.434 157.109 210.428 156.948 210.428C156.552 210.428 156.202 210.49 155.899 210.613C155.596 210.737 155.34 210.91 155.129 211.133C154.919 211.355 154.752 211.621 154.628 211.931C154.511 212.234 154.434 212.568 154.396 212.933L153.914 213.211C153.914 212.605 153.973 212.036 154.09 211.504C154.214 210.972 154.403 210.502 154.656 210.094C154.91 209.679 155.231 209.358 155.621 209.129C156.017 208.894 156.487 208.776 157.031 208.776C157.155 208.776 157.297 208.792 157.458 208.823C157.619 208.847 157.73 208.875 157.792 208.906ZM164.926 217.284V212.116C164.926 211.72 164.846 211.377 164.685 211.086C164.53 210.79 164.295 210.561 163.98 210.4C163.665 210.239 163.275 210.159 162.811 210.159C162.378 210.159 161.998 210.233 161.67 210.381C161.348 210.53 161.095 210.725 160.909 210.966C160.73 211.207 160.64 211.467 160.64 211.745H158.924C158.924 211.386 159.017 211.031 159.202 210.678C159.388 210.326 159.654 210.007 160 209.723C160.353 209.432 160.773 209.203 161.262 209.036C161.757 208.863 162.307 208.776 162.913 208.776C163.643 208.776 164.286 208.9 164.843 209.147C165.406 209.395 165.845 209.769 166.16 210.27C166.482 210.765 166.643 211.386 166.643 212.135V216.811C166.643 217.145 166.67 217.5 166.726 217.877C166.788 218.255 166.878 218.579 166.995 218.852V219H165.205C165.118 218.802 165.05 218.539 165 218.211C164.951 217.877 164.926 217.568 164.926 217.284ZM165.223 212.914L165.242 214.12H163.507C163.018 214.12 162.582 214.16 162.199 214.241C161.815 214.315 161.494 214.429 161.234 214.584C160.974 214.739 160.776 214.933 160.64 215.168C160.504 215.397 160.436 215.666 160.436 215.976C160.436 216.291 160.507 216.579 160.649 216.838C160.792 217.098 161.005 217.305 161.29 217.46C161.58 217.608 161.936 217.683 162.356 217.683C162.882 217.683 163.346 217.571 163.748 217.349C164.15 217.126 164.469 216.854 164.704 216.532C164.945 216.211 165.075 215.898 165.093 215.595L165.826 216.421C165.783 216.681 165.665 216.968 165.474 217.284C165.282 217.599 165.025 217.902 164.704 218.193C164.388 218.477 164.011 218.715 163.572 218.907C163.139 219.093 162.65 219.186 162.106 219.186C161.426 219.186 160.829 219.053 160.315 218.787C159.808 218.521 159.412 218.165 159.128 217.72C158.85 217.268 158.71 216.764 158.71 216.208C158.71 215.669 158.816 215.196 159.026 214.788C159.236 214.374 159.539 214.03 159.935 213.758C160.331 213.48 160.807 213.27 161.364 213.127C161.92 212.985 162.542 212.914 163.229 212.914H165.223ZM171.207 208.962V219H169.481V208.962H171.207ZM169.352 206.299C169.352 206.021 169.435 205.786 169.602 205.594C169.775 205.403 170.029 205.307 170.363 205.307C170.691 205.307 170.941 205.403 171.114 205.594C171.294 205.786 171.383 206.021 171.383 206.299C171.383 206.565 171.294 206.794 171.114 206.986C170.941 207.171 170.691 207.264 170.363 207.264C170.029 207.264 169.775 207.171 169.602 206.986C169.435 206.794 169.352 206.565 169.352 206.299ZM175.679 211.105V219H173.962V208.962H175.586L175.679 211.105ZM175.271 213.601L174.556 213.573C174.562 212.886 174.664 212.252 174.862 211.671C175.06 211.083 175.339 210.573 175.697 210.14C176.056 209.707 176.483 209.373 176.978 209.138C177.479 208.897 178.032 208.776 178.638 208.776C179.133 208.776 179.578 208.844 179.974 208.98C180.37 209.11 180.707 209.321 180.985 209.611C181.27 209.902 181.486 210.279 181.635 210.743C181.783 211.201 181.857 211.761 181.857 212.422V219H180.132V212.404C180.132 211.878 180.055 211.458 179.9 211.142C179.745 210.82 179.52 210.589 179.223 210.446C178.926 210.298 178.561 210.224 178.128 210.224C177.701 210.224 177.312 210.313 176.959 210.493C176.613 210.672 176.313 210.919 176.059 211.235C175.812 211.55 175.617 211.912 175.475 212.32C175.339 212.722 175.271 213.149 175.271 213.601ZM194.057 205.492V219H192.294V205.492H194.057ZM198.399 205.492V206.958H187.962V205.492H198.399ZM201.154 210.539V219H199.438V208.962H201.108L201.154 210.539ZM204.29 208.906L204.281 210.502C204.139 210.471 204.002 210.452 203.873 210.446C203.749 210.434 203.607 210.428 203.446 210.428C203.05 210.428 202.701 210.49 202.397 210.613C202.094 210.737 201.838 210.91 201.627 211.133C201.417 211.355 201.25 211.621 201.126 211.931C201.009 212.234 200.932 212.568 200.895 212.933L200.412 213.211C200.412 212.605 200.471 212.036 200.588 211.504C200.712 210.972 200.901 210.502 201.154 210.094C201.408 209.679 201.729 209.358 202.119 209.129C202.515 208.894 202.985 208.776 203.529 208.776C203.653 208.776 203.795 208.792 203.956 208.823C204.117 208.847 204.228 208.875 204.29 208.906ZM211.424 217.284V212.116C211.424 211.72 211.344 211.377 211.183 211.086C211.028 210.79 210.793 210.561 210.478 210.4C210.163 210.239 209.773 210.159 209.309 210.159C208.876 210.159 208.496 210.233 208.168 210.381C207.846 210.53 207.593 210.725 207.407 210.966C207.228 211.207 207.138 211.467 207.138 211.745H205.422C205.422 211.386 205.515 211.031 205.7 210.678C205.886 210.326 206.152 210.007 206.498 209.723C206.851 209.432 207.271 209.203 207.76 209.036C208.255 208.863 208.805 208.776 209.411 208.776C210.141 208.776 210.784 208.9 211.341 209.147C211.904 209.395 212.343 209.769 212.658 210.27C212.98 210.765 213.141 211.386 213.141 212.135V216.811C213.141 217.145 213.168 217.5 213.224 217.877C213.286 218.255 213.376 218.579 213.493 218.852V219H211.703C211.616 218.802 211.548 218.539 211.499 218.211C211.449 217.877 211.424 217.568 211.424 217.284ZM211.721 212.914L211.74 214.12H210.005C209.516 214.12 209.08 214.16 208.697 214.241C208.313 214.315 207.992 214.429 207.732 214.584C207.472 214.739 207.274 214.933 207.138 215.168C207.002 215.397 206.934 215.666 206.934 215.976C206.934 216.291 207.005 216.579 207.147 216.838C207.29 217.098 207.503 217.305 207.788 217.46C208.078 217.608 208.434 217.683 208.854 217.683C209.38 217.683 209.844 217.571 210.246 217.349C210.648 217.126 210.967 216.854 211.202 216.532C211.443 216.211 211.573 215.898 211.591 215.595L212.324 216.421C212.281 216.681 212.163 216.968 211.972 217.284C211.78 217.599 211.523 217.902 211.202 218.193C210.886 218.477 210.509 218.715 210.07 218.907C209.637 219.093 209.148 219.186 208.604 219.186C207.924 219.186 207.327 219.053 206.813 218.787C206.306 218.521 205.91 218.165 205.626 217.72C205.348 217.268 205.208 216.764 205.208 216.208C205.208 215.669 205.314 215.196 205.524 214.788C205.734 214.374 206.037 214.03 206.433 213.758C206.829 213.48 207.305 213.27 207.862 213.127C208.418 212.985 209.04 212.914 209.727 212.914H211.721ZM218.401 219H216.685V207.904C216.685 207.181 216.814 206.571 217.074 206.077C217.34 205.576 217.721 205.198 218.215 204.945C218.71 204.685 219.298 204.555 219.978 204.555C220.176 204.555 220.374 204.568 220.572 204.592C220.776 204.617 220.974 204.654 221.166 204.704L221.073 206.104C220.943 206.074 220.794 206.052 220.627 206.04C220.467 206.027 220.306 206.021 220.145 206.021C219.78 206.021 219.465 206.095 219.199 206.244C218.939 206.386 218.741 206.596 218.605 206.875C218.469 207.153 218.401 207.496 218.401 207.904V219ZM220.627 208.962V210.279H215.098V208.962H220.627ZM223.828 219H222.112V208.09C222.112 207.329 222.257 206.686 222.548 206.16C222.845 205.634 223.268 205.236 223.819 204.963C224.369 204.691 225.022 204.555 225.776 204.555C226.228 204.555 226.667 204.611 227.094 204.722C227.521 204.827 227.96 204.96 228.411 205.121L228.114 206.568C227.836 206.457 227.508 206.352 227.131 206.253C226.754 206.148 226.345 206.095 225.906 206.095C225.17 206.095 224.638 206.262 224.311 206.596C223.989 206.924 223.828 207.422 223.828 208.09V219ZM225.878 208.962V210.279H220.525V208.962H225.878ZM229.255 208.962V219H227.539V208.962H229.255ZM236.074 217.775C236.482 217.775 236.86 217.692 237.206 217.525C237.552 217.358 237.837 217.129 238.06 216.838C238.282 216.542 238.409 216.204 238.44 215.827H240.073C240.042 216.421 239.841 216.974 239.47 217.488C239.105 217.995 238.625 218.406 238.032 218.722C237.438 219.031 236.785 219.186 236.074 219.186C235.32 219.186 234.661 219.053 234.098 218.787C233.542 218.521 233.078 218.156 232.707 217.692C232.342 217.228 232.066 216.696 231.881 216.096C231.701 215.49 231.612 214.85 231.612 214.176V213.786C231.612 213.112 231.701 212.475 231.881 211.875C232.066 211.269 232.342 210.734 232.707 210.27C233.078 209.806 233.542 209.441 234.098 209.175C234.661 208.909 235.32 208.776 236.074 208.776C236.86 208.776 237.546 208.937 238.134 209.259C238.721 209.574 239.182 210.007 239.516 210.558C239.856 211.102 240.042 211.72 240.073 212.413H238.44C238.409 211.999 238.292 211.625 238.087 211.291C237.889 210.957 237.617 210.691 237.271 210.493C236.931 210.289 236.532 210.187 236.074 210.187C235.549 210.187 235.106 210.292 234.748 210.502C234.395 210.706 234.114 210.984 233.903 211.337C233.699 211.683 233.551 212.07 233.458 212.497C233.371 212.917 233.328 213.347 233.328 213.786V214.176C233.328 214.615 233.371 215.048 233.458 215.475C233.545 215.901 233.69 216.288 233.894 216.634C234.104 216.981 234.386 217.259 234.738 217.469C235.097 217.673 235.542 217.775 236.074 217.775ZM257.375 211.819V212.673C257.375 213.687 257.248 214.596 256.995 215.4C256.741 216.204 256.376 216.888 255.9 217.451C255.424 218.014 254.852 218.443 254.184 218.74C253.522 219.037 252.78 219.186 251.957 219.186C251.159 219.186 250.426 219.037 249.758 218.74C249.097 218.443 248.521 218.014 248.033 217.451C247.55 216.888 247.176 216.204 246.91 215.4C246.644 214.596 246.511 213.687 246.511 212.673V211.819C246.511 210.805 246.641 209.899 246.901 209.101C247.167 208.297 247.541 207.614 248.023 207.051C248.506 206.482 249.078 206.049 249.74 205.752C250.408 205.455 251.141 205.307 251.938 205.307C252.761 205.307 253.503 205.455 254.165 205.752C254.833 206.049 255.405 206.482 255.881 207.051C256.364 207.614 256.732 208.297 256.985 209.101C257.245 209.899 257.375 210.805 257.375 211.819ZM255.603 212.673V211.801C255.603 210.997 255.52 210.285 255.353 209.667C255.192 209.049 254.954 208.529 254.638 208.108C254.323 207.688 253.936 207.369 253.479 207.153C253.027 206.936 252.514 206.828 251.938 206.828C251.382 206.828 250.878 206.936 250.426 207.153C249.981 207.369 249.597 207.688 249.276 208.108C248.96 208.529 248.716 209.049 248.543 209.667C248.37 210.285 248.283 210.997 248.283 211.801V212.673C248.283 213.483 248.37 214.201 248.543 214.825C248.716 215.444 248.964 215.966 249.285 216.393C249.613 216.814 250 217.132 250.445 217.349C250.896 217.565 251.4 217.673 251.957 217.673C252.538 217.673 253.055 217.565 253.506 217.349C253.958 217.132 254.338 216.814 254.647 216.393C254.963 215.966 255.201 215.444 255.362 214.825C255.523 214.201 255.603 213.483 255.603 212.673ZM261.513 210.892V222.859H259.787V208.962H261.364L261.513 210.892ZM268.276 213.897V214.092C268.276 214.822 268.189 215.499 268.016 216.124C267.843 216.743 267.589 217.281 267.255 217.738C266.928 218.196 266.522 218.552 266.04 218.805C265.558 219.059 265.004 219.186 264.379 219.186C263.742 219.186 263.18 219.08 262.691 218.87C262.202 218.66 261.788 218.354 261.448 217.952C261.108 217.55 260.835 217.067 260.631 216.504C260.433 215.942 260.297 215.308 260.223 214.603V213.563C260.297 212.821 260.437 212.156 260.641 211.569C260.845 210.981 261.114 210.48 261.448 210.066C261.788 209.645 262.199 209.327 262.682 209.11C263.164 208.888 263.721 208.776 264.352 208.776C264.982 208.776 265.542 208.9 266.031 209.147C266.519 209.389 266.931 209.735 267.265 210.187C267.599 210.638 267.849 211.179 268.016 211.81C268.189 212.435 268.276 213.131 268.276 213.897ZM266.55 214.092V213.897C266.55 213.396 266.498 212.926 266.393 212.487C266.287 212.042 266.124 211.652 265.901 211.318C265.684 210.978 265.406 210.712 265.066 210.521C264.726 210.323 264.321 210.224 263.851 210.224C263.418 210.224 263.04 210.298 262.719 210.446C262.403 210.595 262.134 210.796 261.912 211.049C261.689 211.297 261.507 211.581 261.364 211.903C261.228 212.218 261.126 212.546 261.058 212.886V215.289C261.182 215.722 261.355 216.13 261.578 216.514C261.8 216.891 262.097 217.197 262.468 217.432C262.839 217.661 263.306 217.775 263.869 217.775C264.333 217.775 264.732 217.68 265.066 217.488C265.406 217.29 265.684 217.021 265.901 216.681C266.124 216.34 266.287 215.951 266.393 215.512C266.498 215.066 266.55 214.593 266.55 214.092ZM274.668 208.962V210.279H269.241V208.962H274.668ZM271.078 206.522H272.794V216.514C272.794 216.854 272.847 217.111 272.952 217.284C273.057 217.457 273.193 217.571 273.36 217.627C273.527 217.683 273.706 217.71 273.898 217.71C274.04 217.71 274.189 217.698 274.343 217.673C274.504 217.642 274.625 217.618 274.705 217.599L274.714 219C274.578 219.043 274.399 219.083 274.176 219.121C273.96 219.164 273.697 219.186 273.388 219.186C272.967 219.186 272.581 219.102 272.228 218.935C271.875 218.768 271.594 218.49 271.384 218.1C271.18 217.704 271.078 217.172 271.078 216.504V206.522ZM278.546 208.962V219H276.82V208.962H278.546ZM276.69 206.299C276.69 206.021 276.774 205.786 276.941 205.594C277.114 205.403 277.368 205.307 277.702 205.307C278.029 205.307 278.28 205.403 278.453 205.594C278.632 205.786 278.722 206.021 278.722 206.299C278.722 206.565 278.632 206.794 278.453 206.986C278.28 207.171 278.029 207.264 277.702 207.264C277.368 207.264 277.114 207.171 276.941 206.986C276.774 206.794 276.69 206.565 276.69 206.299ZM283.008 210.957V219H281.283V208.962H282.916L283.008 210.957ZM282.656 213.601L281.858 213.573C281.864 212.886 281.954 212.252 282.127 211.671C282.3 211.083 282.557 210.573 282.897 210.14C283.237 209.707 283.661 209.373 284.168 209.138C284.675 208.897 285.263 208.776 285.931 208.776C286.401 208.776 286.834 208.844 287.229 208.98C287.625 209.11 287.969 209.318 288.259 209.602C288.55 209.887 288.776 210.251 288.937 210.697C289.097 211.142 289.178 211.68 289.178 212.311V219H287.461V212.395C287.461 211.869 287.372 211.448 287.192 211.133C287.019 210.817 286.772 210.589 286.45 210.446C286.129 210.298 285.751 210.224 285.318 210.224C284.811 210.224 284.388 210.313 284.047 210.493C283.707 210.672 283.435 210.919 283.231 211.235C283.027 211.55 282.878 211.912 282.786 212.32C282.699 212.722 282.656 213.149 282.656 213.601ZM289.159 212.654L288.009 213.007C288.015 212.456 288.105 211.928 288.278 211.42C288.457 210.913 288.714 210.462 289.048 210.066C289.388 209.67 289.806 209.358 290.3 209.129C290.795 208.894 291.361 208.776 291.998 208.776C292.536 208.776 293.012 208.847 293.427 208.99C293.847 209.132 294.2 209.352 294.484 209.648C294.775 209.939 294.995 210.313 295.143 210.771C295.292 211.229 295.366 211.773 295.366 212.404V219H293.64V212.385C293.64 211.822 293.55 211.386 293.371 211.077C293.198 210.762 292.951 210.542 292.629 210.418C292.313 210.289 291.936 210.224 291.497 210.224C291.12 210.224 290.786 210.289 290.495 210.418C290.204 210.548 289.96 210.728 289.762 210.957C289.564 211.179 289.413 211.436 289.308 211.727C289.209 212.017 289.159 212.326 289.159 212.654ZM299.828 208.962V219H298.103V208.962H299.828ZM297.973 206.299C297.973 206.021 298.056 205.786 298.223 205.594C298.396 205.403 298.65 205.307 298.984 205.307C299.312 205.307 299.562 205.403 299.735 205.594C299.915 205.786 300.004 206.021 300.004 206.299C300.004 206.565 299.915 206.794 299.735 206.986C299.562 207.171 299.312 207.264 298.984 207.264C298.65 207.264 298.396 207.171 298.223 206.986C298.056 206.794 297.973 206.565 297.973 206.299ZM310.061 217.59V219H302.76V217.59H310.061ZM309.792 210.177L303.149 219H302.101V217.738L308.697 208.962H309.792V210.177ZM309.031 208.962V210.381H302.175V208.962H309.031ZM316.026 219.186C315.327 219.186 314.694 219.068 314.125 218.833C313.562 218.592 313.076 218.255 312.668 217.822C312.266 217.389 311.957 216.875 311.74 216.282C311.524 215.688 311.416 215.039 311.416 214.333V213.944C311.416 213.127 311.536 212.401 311.777 211.764C312.019 211.12 312.346 210.576 312.761 210.131C313.175 209.686 313.645 209.348 314.171 209.12C314.697 208.891 315.241 208.776 315.804 208.776C316.521 208.776 317.14 208.9 317.659 209.147C318.185 209.395 318.615 209.741 318.949 210.187C319.283 210.626 319.53 211.145 319.691 211.745C319.852 212.339 319.932 212.988 319.932 213.693V214.463H312.436V213.062H318.216V212.933C318.191 212.487 318.098 212.054 317.938 211.634C317.783 211.213 317.535 210.867 317.195 210.595C316.855 210.323 316.391 210.187 315.804 210.187C315.414 210.187 315.055 210.27 314.728 210.437C314.4 210.598 314.118 210.839 313.883 211.161C313.648 211.482 313.466 211.875 313.336 212.339C313.206 212.803 313.141 213.338 313.141 213.944V214.333C313.141 214.81 313.206 215.258 313.336 215.679C313.472 216.093 313.667 216.458 313.92 216.773C314.18 217.089 314.493 217.336 314.857 217.516C315.229 217.695 315.649 217.785 316.119 217.785C316.725 217.785 317.239 217.661 317.659 217.414C318.08 217.166 318.448 216.835 318.763 216.421L319.802 217.247C319.586 217.574 319.311 217.887 318.977 218.184C318.643 218.48 318.231 218.722 317.743 218.907C317.26 219.093 316.688 219.186 316.026 219.186ZM323.652 210.539V219H321.936V208.962H323.606L323.652 210.539ZM326.788 208.906L326.779 210.502C326.637 210.471 326.5 210.452 326.371 210.446C326.247 210.434 326.105 210.428 325.944 210.428C325.548 210.428 325.199 210.49 324.896 210.613C324.592 210.737 324.336 210.91 324.125 211.133C323.915 211.355 323.748 211.621 323.625 211.931C323.507 212.234 323.43 212.568 323.393 212.933L322.91 213.211C322.91 212.605 322.969 212.036 323.086 211.504C323.21 210.972 323.399 210.502 323.652 210.094C323.906 209.679 324.228 209.358 324.617 209.129C325.013 208.894 325.483 208.776 326.027 208.776C326.151 208.776 326.293 208.792 326.454 208.823C326.615 208.847 326.726 208.875 326.788 208.906Z" fill="#36393B"/>
<path d="M272.103 137.126L254.818 122.689C252.882 121.064 249.84 121.125 247.973 122.809C246.106 124.493 246.176 127.14 248.111 128.764L250.22 130.539H198.745L200.854 128.764C202.79 127.14 202.859 124.493 200.992 122.809C199.125 121.125 196.083 121.064 194.147 122.689L176.862 137.126C174.926 138.75 174.857 141.397 176.724 143.082C177.657 143.954 178.936 144.375 180.215 144.375C181.425 144.375 182.635 143.984 183.569 143.202L188.651 138.961H260.28L265.362 143.202C266.295 143.984 267.505 144.375 268.715 144.375C269.994 144.375 271.274 143.954 272.207 143.082C274.108 141.397 274.039 138.75 272.103 137.126Z" fill="#444444"/>
<path d="M252.502 14.4375H246.625C246.625 11.7906 244.136 9.625 241.094 9.625H207.906C204.864 9.625 202.375 11.7906 202.375 14.4375H197.189C184.986 14.4375 174.719 22.7691 174.719 33.3867V104.371C174.719 114.989 224.5 123.922 224.5 123.922C224.5 123.922 274.281 114.989 274.281 104.371V33.3867C274.281 22.7691 264.705 14.4375 252.502 14.4375ZM224.5 105.875C215.339 105.875 207.906 99.4082 207.906 91.4375C207.906 83.4668 215.339 77 224.5 77C233.661 77 241.094 83.4668 241.094 91.4375C241.094 99.4082 233.661 105.875 224.5 105.875ZM257.688 57.75C257.688 60.3969 255.198 62.5625 252.156 62.5625H196.844C193.802 62.5625 191.312 60.3969 191.312 57.75V38.5C191.312 35.8531 193.802 33.6875 196.844 33.6875H252.156C255.198 33.6875 257.688 35.8531 257.688 38.5V57.75Z" fill="#FF7F50"/>
<path d="M224.5 100.611C230.323 100.611 235.044 96.5041 235.044 91.4375C235.044 86.3709 230.323 82.2637 224.5 82.2637C218.677 82.2637 213.956 86.3709 213.956 91.4375C213.956 96.5041 218.677 100.611 224.5 100.611Z" fill="#E6EAF1"/>
</svg>
