<svg width="203" height="42" viewBox="0 0 203 42" fill="none" xmlns="http://www.w3.org/2000/svg">
<path d="M52.6559 11.852V30H49.0159V11.852H52.6559ZM65.6642 15.388C67.3802 15.388 68.7669 15.934 69.8242 17.026C70.8816 18.1007 71.4102 19.6087 71.4102 21.55V30H67.7702V22.044C67.7702 20.9 67.4842 20.0247 66.9122 19.418C66.3402 18.794 65.5602 18.482 64.5722 18.482C63.5669 18.482 62.7696 18.794 62.1802 19.418C61.6082 20.0247 61.3222 20.9 61.3222 22.044V30H57.6822V15.596H61.3222V17.39C61.8076 16.766 62.4229 16.2807 63.1682 15.934C63.9309 15.57 64.7629 15.388 65.6642 15.388ZM80.5397 18.586V25.554C80.5397 26.0393 80.6524 26.3947 80.8777 26.62C81.1204 26.828 81.519 26.932 82.0737 26.932H83.7637V30H81.4757C78.4077 30 76.8737 28.5093 76.8737 25.528V18.586H75.1577V15.596H76.8737V12.034H80.5397V15.596H83.7637V18.586H80.5397ZM101.202 22.486C101.202 23.006 101.167 23.474 101.098 23.89H90.5678C90.6544 24.93 91.0184 25.7447 91.6598 26.334C92.3011 26.9233 93.0898 27.218 94.0258 27.218C95.3778 27.218 96.3398 26.6373 96.9118 25.476H100.838C100.422 26.8627 99.6244 28.0067 98.4458 28.908C97.2671 29.792 95.8198 30.234 94.1038 30.234C92.7171 30.234 91.4691 29.9307 90.3598 29.324C89.2678 28.7 88.4098 27.8247 87.7858 26.698C87.1791 25.5713 86.8758 24.2713 86.8758 22.798C86.8758 21.3073 87.1791 19.9987 87.7858 18.872C88.3924 17.7453 89.2418 16.8787 90.3338 16.272C91.4258 15.6653 92.6824 15.362 94.1038 15.362C95.4731 15.362 96.6951 15.6567 97.7698 16.246C98.8618 16.8353 99.7024 17.676 100.292 18.768C100.898 19.8427 101.202 21.082 101.202 22.486ZM97.4318 21.446C97.4144 20.51 97.0764 19.7647 96.4178 19.21C95.7591 18.638 94.9531 18.352 93.9998 18.352C93.0984 18.352 92.3358 18.6293 91.7118 19.184C91.1051 19.7213 90.7324 20.4753 90.5938 21.446H97.4318ZM108.929 10.76V30H105.289V10.76H108.929ZM117.595 10.76V30H113.955V10.76H117.595ZM124.467 13.88C123.826 13.88 123.289 13.6807 122.855 13.282C122.439 12.866 122.231 12.3547 122.231 11.748C122.231 11.1413 122.439 10.6387 122.855 10.24C123.289 9.824 123.826 9.616 124.467 9.616C125.109 9.616 125.637 9.824 126.053 10.24C126.487 10.6387 126.703 11.1413 126.703 11.748C126.703 12.3547 126.487 12.866 126.053 13.282C125.637 13.6807 125.109 13.88 124.467 13.88ZM126.261 15.596V30H122.621V15.596H126.261ZM143.638 11.852V14.79H138.802V30H135.162V14.79H130.326V11.852H143.638ZM151.363 17.832C151.831 17.0693 152.438 16.4713 153.183 16.038C153.946 15.6047 154.813 15.388 155.783 15.388V19.21H154.821C153.677 19.21 152.811 19.4787 152.221 20.016C151.649 20.5533 151.363 21.4893 151.363 22.824V30H147.723V15.596H151.363V17.832ZM158.729 22.746C158.729 21.29 159.015 19.9987 159.587 18.872C160.177 17.7453 160.965 16.8787 161.953 16.272C162.959 15.6653 164.077 15.362 165.307 15.362C166.382 15.362 167.318 15.5787 168.115 16.012C168.93 16.4453 169.58 16.9913 170.065 17.65V15.596H173.731V30H170.065V27.894C169.597 28.57 168.947 29.1333 168.115 29.584C167.301 30.0173 166.356 30.234 165.281 30.234C164.068 30.234 162.959 29.922 161.953 29.298C160.965 28.674 160.177 27.7987 159.587 26.672C159.015 25.528 158.729 24.2193 158.729 22.746ZM170.065 22.798C170.065 21.914 169.892 21.16 169.545 20.536C169.199 19.8947 168.731 19.4093 168.141 19.08C167.552 18.7333 166.919 18.56 166.243 18.56C165.567 18.56 164.943 18.7247 164.371 19.054C163.799 19.3833 163.331 19.8687 162.967 20.51C162.621 21.134 162.447 21.8793 162.447 22.746C162.447 23.6127 162.621 24.3753 162.967 25.034C163.331 25.6753 163.799 26.1693 164.371 26.516C164.961 26.8627 165.585 27.036 166.243 27.036C166.919 27.036 167.552 26.8713 168.141 26.542C168.731 26.1953 169.199 25.71 169.545 25.086C169.892 24.4447 170.065 23.682 170.065 22.798ZM180.562 13.88C179.921 13.88 179.384 13.6807 178.95 13.282C178.534 12.866 178.326 12.3547 178.326 11.748C178.326 11.1413 178.534 10.6387 178.95 10.24C179.384 9.824 179.921 9.616 180.562 9.616C181.204 9.616 181.732 9.824 182.148 10.24C182.582 10.6387 182.798 11.1413 182.798 11.748C182.798 12.3547 182.582 12.866 182.148 13.282C181.732 13.6807 181.204 13.88 180.562 13.88ZM182.356 15.596V30H178.716V15.596H182.356ZM195.365 15.388C197.081 15.388 198.467 15.934 199.525 17.026C200.582 18.1007 201.111 19.6087 201.111 21.55V30H197.471V22.044C197.471 20.9 197.185 20.0247 196.613 19.418C196.041 18.794 195.261 18.482 194.273 18.482C193.267 18.482 192.47 18.794 191.881 19.418C191.309 20.0247 191.023 20.9 191.023 22.044V30H187.383V15.596H191.023V17.39C191.508 16.766 192.123 16.2807 192.869 15.934C193.631 15.57 194.463 15.388 195.365 15.388Z" fill="white"/>
<path d="M36.1404 37.398L31.5506 33.4605C31.0365 33.0176 30.2287 33.034 29.733 33.4934C29.2373 33.9527 29.2557 34.6746 29.7697 35.1176L30.3297 35.6016H16.6611L17.2211 35.1176C17.7352 34.6746 17.7535 33.9527 17.2578 33.4934C16.7621 33.034 15.9543 33.0176 15.4402 33.4605L10.8504 37.398C10.3363 37.841 10.318 38.5629 10.8137 39.0223C11.0615 39.2602 11.4012 39.375 11.7408 39.375C12.0621 39.375 12.3834 39.2684 12.6313 39.0551L13.9807 37.8984H33.001L34.3504 39.0551C34.5983 39.2684 34.9195 39.375 35.2408 39.375C35.5805 39.375 35.9201 39.2602 36.168 39.0223C36.6729 38.5629 36.6545 37.841 36.1404 37.398Z" fill="#444444"/>
<path d="M30.9355 3.9375H29.375C29.375 3.21562 28.7141 2.625 27.9062 2.625H19.0938C18.2859 2.625 17.625 3.21562 17.625 3.9375H16.248C13.0076 3.9375 10.2812 6.20977 10.2812 9.10547V28.4648C10.2812 31.3605 23.5 33.7969 23.5 33.7969C23.5 33.7969 36.7188 31.3605 36.7188 28.4648V9.10547C36.7188 6.20977 34.176 3.9375 30.9355 3.9375ZM23.5 28.875C21.0674 28.875 19.0938 27.1113 19.0938 24.9375C19.0938 22.7637 21.0674 21 23.5 21C25.9326 21 27.9062 22.7637 27.9062 24.9375C27.9062 27.1113 25.9326 28.875 23.5 28.875ZM32.3125 15.75C32.3125 16.4719 31.6516 17.0625 30.8438 17.0625H16.1562C15.3484 17.0625 14.6875 16.4719 14.6875 15.75V10.5C14.6875 9.77812 15.3484 9.1875 16.1562 9.1875H30.8438C31.6516 9.1875 32.3125 9.77812 32.3125 10.5V15.75Z" fill="white"/>
<path d="M23.5 27.4395C25.0463 27.4395 26.2998 26.3193 26.2998 24.9375C26.2998 23.5557 25.0463 22.4355 23.5 22.4355C21.9537 22.4355 20.7002 23.5557 20.7002 24.9375C20.7002 26.3193 21.9537 27.4395 23.5 27.4395Z" fill="#E6EAF1"/>
</svg>
